<svg width="10" height="9" viewBox="0 0 10 9" fill="none" xmlns="http://www.w3.org/2000/svg">
<path d="M5.34339 0.295209L6.40072 2.41509C6.47697 2.56931 6.62572 2.67662 6.79827 2.7019L9.16669 3.0469C9.30593 3.06643 9.43151 3.13968 9.51564 3.25046C9.59978 3.36123 9.63553 3.50039 9.61499 3.63714C9.5986 3.75049 9.54517 3.85552 9.46274 3.93642L7.74564 5.59907C7.61988 5.71661 7.56266 5.88842 7.59338 6.0563L8.01631 8.39648C8.06302 8.67644 7.87624 8.94262 7.59338 8.99919C7.47762 9.01737 7.35898 8.99843 7.25504 8.94516L5.14039 7.84365C4.98378 7.76449 4.79793 7.76449 4.64133 7.84365L2.52667 8.94516C2.2662 9.08369 1.94078 8.98886 1.79923 8.73317C1.7456 8.63083 1.72635 8.51441 1.74425 8.40064L2.16718 6.06046C2.1979 5.89258 2.14069 5.72077 2.01493 5.60323L0.297828 3.94057C0.197092 3.84294 0.140381 3.70969 0.140381 3.57063C0.140381 3.43158 0.197092 3.29833 0.297828 3.20069C0.37898 3.11812 0.486433 3.06532 0.602338 3.05106L2.97075 2.70605C3.1433 2.68078 3.29205 2.57346 3.36831 2.41925L4.38757 0.295209C4.4767 0.114029 4.66498 0.000406803 4.86971 0.00424466H4.93315C5.1113 0.0264568 5.2658 0.136035 5.34339 0.295209Z" fill="#FF9900"/>
<path d="M4.88242 7.78134C4.78979 7.78073 4.70268 7.81123 4.62027 7.8528L2.51229 8.95161C2.25947 9.079 1.93843 8.97664 1.79925 8.73321C1.74538 8.63244 1.72609 8.51725 1.74427 8.40483L2.1672 6.06881C2.1956 5.89984 2.13884 5.72784 2.01495 5.60742L0.293617 3.94477C0.086047 3.74033 0.086047 3.40933 0.293617 3.20489C0.374807 3.12467 0.480074 3.07221 0.593898 3.05525L2.97077 2.70609C3.15393 2.67951 3.28485 2.57823 3.36832 2.41928L4.40088 0.270901C4.47957 0.0961331 4.74413 -0.0246419 4.88664 0.0042819C4.88242 0.145607 4.88242 7.68574 4.88242 7.78134Z" fill="#FF9900"/>
</svg>
